# Blender v2.79 (sub 0) OBJ File: 'Avatar.blend'
# www.blender.org
mtllib RightLeg.mtl
o Right_Leg_Right_Leg_Right_Leg_Left_Arm_Cube.006
v -0.050000 1.950000 -0.499998
v -0.050001 0.050000 -0.500002
v -0.950000 0.050000 -0.500000
v -0.950000 1.950000 -0.500002
v -0.975002 1.950000 0.475000
v -0.975000 0.050000 0.475000
v -0.950000 0.050000 0.500000
v -0.950002 1.950000 0.500000
v -0.025000 0.050000 0.475000
v -0.025000 1.950000 0.475002
v -0.050000 1.950000 0.500002
v -0.050000 0.050000 0.500000
v -1.000000 1.950000 -0.450002
v -1.000000 0.050000 -0.450000
v -1.000000 0.050000 0.450000
v -1.000002 1.950000 0.450000
v 0.000000 1.950000 0.450002
v 0.000000 0.050000 0.450000
v 0.000000 0.050000 -0.450002
v 0.000000 1.950000 -0.449998
v -0.025001 0.050000 -0.475002
v -0.024998 1.950000 -0.475000
v -0.037215 1.967274 0.462786
v -0.055177 1.975000 0.469824
v -0.944823 1.975000 -0.469824
v -0.055176 1.975000 -0.469822
v -0.055178 0.025000 -0.469824
v -0.944824 0.025000 -0.469822
v -0.969824 1.975000 0.444823
v -0.969822 1.975000 -0.444824
v -0.969824 0.025000 -0.444822
v -0.969823 0.025000 0.444824
v -0.030176 1.975000 -0.444823
v -0.030177 1.975000 0.444824
v -0.944824 1.975000 0.469823
v -0.975002 0.050000 -0.475000
v -0.975000 1.950000 -0.475002
v -0.945341 0.025000 0.469306
v -0.055177 0.025000 0.469823
v -0.030177 0.025000 0.444823
v -0.030178 0.025000 -0.444824
v -0.060355 2.000000 0.439646
v -0.939646 2.000000 0.439645
v -0.060354 2.000000 -0.439645
v -0.939645 2.000000 -0.439646
v -0.037214 1.967274 -0.462785
v -0.962785 1.967274 -0.462786
v -0.962786 1.967274 0.462785
v -0.962785 0.032726 0.462786
v -0.939646 -0.000000 0.439646
v -0.060355 -0.000000 0.439645
v -0.939646 0.000000 -0.439645
v -0.060355 0.000000 -0.439646
v -0.962787 0.032726 -0.462785
v -0.037216 0.032726 -0.462786
v -0.037214 0.032726 0.462785
vt 0.150390 0.367188
vt 0.150390 0.154297
vt 0.248047 0.154297
vt 0.248047 0.367188
vt 0.371094 0.367188
vt 0.371094 0.154297
vt 0.376953 0.154297
vt 0.376953 0.367188
vt 0.480469 0.154297
vt 0.480469 0.367188
vt 0.474609 0.367188
vt 0.474609 0.154297
vt 0.263673 0.367188
vt 0.263673 0.154297
vt 0.361335 0.154297
vt 0.361335 0.367188
vt 0.037109 0.367188
vt 0.037109 0.154297
vt 0.134765 0.154297
vt 0.134765 0.367188
vt 0.140625 0.154297
vt 0.140625 0.367188
vt 0.480469 0.373047
vt 0.474609 0.373047
vt 0.248047 0.373047
vt 0.150390 0.373047
vt 0.150390 0.148437
vt 0.248047 0.148437
vt 0.361335 0.373047
vt 0.263673 0.373047
vt 0.263673 0.148437
vt 0.361335 0.148437
vt 0.134765 0.373047
vt 0.037109 0.373047
vt 0.376953 0.373047
vt 0.253906 0.154297
vt 0.253906 0.367188
vt 0.031250 0.367188
vt 0.031250 0.154297
vt 0.367188 0.154297
vt 0.367188 0.367188
vt 0.144531 0.367188
vt 0.144531 0.154297
vt 0.257813 0.367188
vt 0.257813 0.154297
vt 0.376953 0.148437
vt 0.474609 0.148437
vt 0.037109 0.148437
vt 0.134765 0.148437
vt 0.474609 0.382812
vt 0.376953 0.382812
vt 0.376953 0.376953
vt 0.474609 0.376953
vt 0.474609 0.480469
vt 0.480469 0.382812
vt 0.480454 0.480469
vt 0.376953 0.480469
vt 0.371109 0.480469
vt 0.371094 0.382812
vt 0.474609 0.486328
vt 0.376953 0.486328
vt 0.031250 0.373047
vt 0.480469 0.376953
vt 0.140625 0.373047
vt 0.144531 0.373047
vt 0.480469 0.486328
vt 0.253906 0.373047
vt 0.257813 0.373047
vt 0.371094 0.486328
vt 0.367188 0.373047
vt 0.371094 0.373047
vt 0.371094 0.376953
vt 0.376953 0.148438
vt 0.371094 0.148438
vt 0.371094 0.154297
vt 0.376953 0.154297
vt 0.376953 0.138672
vt 0.474609 0.138672
vt 0.474609 0.144531
vt 0.376953 0.144531
vt 0.376953 0.041015
vt 0.371094 0.138672
vt 0.371108 0.041015
vt 0.474609 0.041015
vt 0.480453 0.041015
vt 0.480469 0.138672
vt 0.376953 0.035156
vt 0.474609 0.035156
vt 0.134766 0.148438
vt 0.134766 0.154297
vt 0.140625 0.154297
vt 0.140625 0.148438
vt 0.371094 0.144531
vt 0.037109 0.148438
vt 0.031250 0.148438
vt 0.031250 0.154297
vt 0.037109 0.154297
vt 0.248047 0.148438
vt 0.248047 0.154297
vt 0.253906 0.154297
vt 0.253906 0.148438
vt 0.371094 0.035156
vt 0.150391 0.148438
vt 0.144531 0.148438
vt 0.144531 0.154297
vt 0.150391 0.154297
vt 0.361329 0.148438
vt 0.361329 0.154297
vt 0.367188 0.154297
vt 0.367188 0.148438
vt 0.480469 0.035157
vt 0.263673 0.148438
vt 0.257813 0.148438
vt 0.257813 0.154297
vt 0.263673 0.154297
vt 0.474610 0.148438
vt 0.474609 0.154297
vt 0.480469 0.154297
vt 0.480469 0.148438
vt 0.480469 0.144531
vn 0.0269 0.0155 -0.9995
vn 0.0269 -0.0155 -0.9995
vn -0.0269 -0.0155 -0.9995
vn -0.0269 0.0155 -0.9995
vn -0.7071 0.0088 0.7071
vn -0.7071 -0.0087 0.7071
vn -0.0269 -0.0156 0.9995
vn -0.0269 0.0155 0.9995
vn 0.7071 -0.0088 0.7071
vn 0.7071 0.0088 0.7071
vn 0.0269 0.0155 0.9995
vn 0.0269 -0.0156 0.9995
vn -0.9995 0.0155 -0.0269
vn -0.9995 -0.0155 -0.0269
vn -0.9995 -0.0155 0.0269
vn -0.9995 0.0155 0.0269
vn 0.9995 0.0155 0.0269
vn 0.9995 -0.0155 0.0269
vn 0.9995 -0.0155 -0.0269
vn 0.9995 0.0155 -0.0269
vn 0.7071 -0.0088 -0.7071
vn 0.7071 0.0087 -0.7071
vn 0.5000 0.7071 0.5000
vn 0.0117 0.7710 0.6367
vn -0.0117 0.7710 -0.6367
vn 0.0116 0.7710 -0.6367
vn 0.0117 -0.7710 -0.6367
vn -0.0116 -0.7710 -0.6367
vn -0.6367 0.7710 0.0117
vn -0.6367 0.7710 -0.0117
vn -0.6367 -0.7710 -0.0116
vn -0.6367 -0.7710 0.0116
vn 0.6367 0.7710 -0.0116
vn 0.6367 0.7710 0.0117
vn -0.0117 0.7710 0.6367
vn -0.7071 -0.0088 -0.7071
vn -0.7071 0.0088 -0.7071
vn -0.0117 -0.7710 0.6367
vn 0.0115 -0.7710 0.6367
vn 0.6367 -0.7710 0.0116
vn 0.6367 -0.7710 -0.0117
vn 0.0272 0.9993 0.0272
vn -0.0272 0.9993 0.0272
vn 0.0272 0.9993 -0.0272
vn -0.0272 0.9993 -0.0272
vn 0.5000 0.7071 -0.5000
vn -0.5000 0.7071 -0.5000
vn -0.5000 0.7071 0.5000
vn -0.5000 -0.7071 0.5000
vn -0.0272 -0.9993 0.0272
vn 0.0272 -0.9993 0.0272
vn -0.0272 -0.9993 -0.0272
vn 0.0272 -0.9993 -0.0272
vn -0.5000 -0.7071 -0.5000
vn 0.5000 -0.7071 -0.5000
vn 0.5000 -0.7071 0.5000
usemtl RightLeg
s 1
f 1/1/1 2/2/2 3/3/3 4/4/4
f 5/5/5 6/6/6 7/7/7 8/8/8
f 9/9/9 10/10/10 11/11/11 12/12/12
f 8/8/8 7/7/7 12/12/12 11/11/11
f 13/13/13 14/14/14 15/15/15 16/16/16
f 17/17/17 18/18/18 19/19/19 20/20/20
f 21/21/21 22/22/22 20/20/20 19/19/19
f 11/11/11 10/10/10 23/23/23 24/24/24
f 25/25/25 26/26/26 1/1/1 4/4/4
f 27/27/27 28/28/28 3/3/3 2/2/2
f 29/29/29 30/30/30 13/13/13 16/16/16
f 31/31/31 32/32/32 15/15/15 14/14/14
f 33/33/33 34/34/34 17/17/17 20/20/20
f 24/24/24 35/35/35 8/8/8 11/11/11
f 36/36/36 37/37/37 4/4/4 3/3/3
f 18/18/18 17/17/17 10/38/10 9/39/9
f 16/16/16 15/15/15 6/40/6 5/41/5
f 2/2/2 1/1/1 22/42/22 21/43/21
f 14/14/14 13/13/13 37/44/37 36/45/36
f 12/12/12 7/7/7 38/46/38 39/47/39
f 19/19/19 18/18/18 40/48/40 41/49/41
f 42/50/42 43/51/43 35/52/35 24/53/24
f 44/54/44 42/50/42 34/55/34 33/56/33
f 43/51/43 45/57/45 30/58/30 29/59/29
f 45/57/45 44/54/44 26/60/26 25/61/25
f 45/57/45 43/51/43 42/50/42 44/54/44
f 17/17/17 34/34/34 23/62/23 10/38/10
f 34/55/34 42/50/42 24/53/24 23/63/23
f 20/20/20 22/22/22 46/64/46 33/33/33
f 1/1/1 26/26/26 46/65/46 22/42/22
f 26/60/26 44/54/44 33/56/33 46/66/46
f 4/4/4 37/37/37 47/67/47 25/25/25
f 13/13/13 30/30/30 47/68/47 37/44/37
f 30/58/30 45/57/45 25/61/25 47/69/47
f 16/16/16 5/41/5 48/70/48 29/29/29
f 8/8/8 35/35/35 48/71/48 5/5/5
f 35/52/35 43/51/43 29/59/29 48/72/48
f 7/73/7 6/74/6 49/75/49 38/76/38
f 50/77/50 51/78/51 39/79/39 38/80/38
f 52/81/52 50/77/50 32/82/32 31/83/31
f 51/78/51 53/84/53 41/85/41 40/86/40
f 53/84/53 52/81/52 28/87/28 27/88/27
f 53/84/53 51/78/51 50/77/50 52/81/52
f 15/89/15 32/90/32 49/91/49 6/92/6
f 32/82/32 50/77/50 38/80/38 49/93/49
f 14/94/14 36/95/36 54/96/54 31/97/31
f 3/98/3 28/99/28 54/100/54 36/101/36
f 28/87/28 52/81/52 31/83/31 54/102/54
f 2/103/2 21/104/21 55/105/55 27/106/27
f 19/107/19 41/108/41 55/109/55 21/110/21
f 41/85/41 53/84/53 27/88/27 55/111/55
f 18/112/18 9/113/9 56/114/56 40/115/40
f 12/116/12 39/117/39 56/118/56 9/119/9
f 39/79/39 51/78/51 40/86/40 56/120/56
