# Blender v2.80 (sub 75) OBJ File: 'Avatar NEW.blend'
# www.blender.org
mtllib Torso.mtl
o Torso_Torso_Cube_Left_Arm_Cube.000
v 0.950000 3.950000 -0.499998
v -0.950000 2.050000 -0.500000
v -0.975000 2.050000 0.475000
v -0.950000 2.050000 0.500000
v 0.975000 2.050000 0.475000
v 0.975000 3.950000 0.475002
v 0.950000 3.950000 0.500002
v 0.950000 2.050000 0.500000
v -1.000000 2.050000 -0.450000
v -1.000000 2.050000 0.450000
v 1.000000 3.950000 0.450002
v 1.000000 2.050000 0.450000
v 1.000000 3.950000 -0.449998
v 0.969823 2.025000 0.444823
v 0.944823 3.975000 0.469824
v -0.944823 2.025000 0.469824
v -0.969824 2.025000 -0.444822
v 0.944822 2.025000 -0.469824
v -0.944824 2.025000 -0.469822
v -0.969823 2.025000 0.444824
v 0.969823 3.975000 0.444824
v 0.944823 2.025000 0.469823
v 0.969822 2.025000 -0.444824
v 0.939645 4.000000 0.439646
v 0.962785 3.967274 0.462786
v 0.975002 3.950000 -0.475000
v 0.969824 3.975000 -0.444823
v 0.944824 3.975000 -0.469822
v 0.939646 4.000000 -0.439645
v 0.962786 3.967274 -0.462785
v -0.975000 3.950000 -0.475002
v -0.950000 3.950000 -0.500002
v -1.000000 3.950000 -0.450002
v -0.944823 3.975000 -0.469824
v -0.969822 3.975000 -0.444824
v -0.939645 4.000000 -0.439646
v -0.962785 3.967274 -0.462786
v -0.975002 3.950000 0.475000
v -1.000002 3.950000 0.450000
v -0.950002 3.950000 0.500000
v -0.969824 3.975000 0.444823
v -0.944824 3.975000 0.469823
v -0.939646 4.000000 0.439645
v -0.962786 3.967274 0.462785
v -0.939646 2.000000 0.439646
v -0.962785 2.032726 0.462786
v -0.975002 2.050000 -0.475000
v -0.939646 2.000000 -0.439645
v -0.962787 2.032726 -0.462785
v 0.974999 2.050000 -0.475002
v 0.949999 2.050000 -0.500002
v 1.000000 2.050000 -0.450002
v 0.939645 2.000000 -0.439646
v 0.962784 2.032726 -0.462786
v 0.939645 2.000000 0.439645
v 0.962786 2.032726 0.462785
vt 0.648437 0.851562
vt 0.648437 0.638671
vt 0.855469 0.638671
vt 0.855469 0.851562
vt 0.306641 0.851562
vt 0.306641 0.638671
vt 0.312500 0.638671
vt 0.312500 0.851562
vt 0.525391 0.638671
vt 0.525391 0.851562
vt 0.519531 0.851562
vt 0.519531 0.638671
vt 0.199219 0.851562
vt 0.199219 0.638671
vt 0.296881 0.638671
vt 0.296881 0.851562
vt 0.535156 0.851562
vt 0.535156 0.638671
vt 0.632812 0.638671
vt 0.632812 0.851562
vt 0.638672 0.638671
vt 0.638672 0.851562
vt 0.525390 0.857421
vt 0.519531 0.857421
vt 0.855469 0.857421
vt 0.648437 0.857421
vt 0.648437 0.632811
vt 0.855469 0.632811
vt 0.296881 0.857421
vt 0.199219 0.857421
vt 0.199219 0.632811
vt 0.296881 0.632811
vt 0.632812 0.857421
vt 0.535156 0.857421
vt 0.312500 0.857421
vt 0.861328 0.638671
vt 0.861328 0.851562
vt 0.529297 0.851562
vt 0.529297 0.638671
vt 0.302734 0.638671
vt 0.302734 0.851562
vt 0.642578 0.851562
vt 0.642578 0.638671
vt 0.193359 0.851562
vt 0.193359 0.638671
vt 0.312500 0.632811
vt 0.519531 0.632811
vt 0.535156 0.632811
vt 0.632812 0.632811
vt 0.519531 0.867186
vt 0.312500 0.867186
vt 0.312500 0.861327
vt 0.519531 0.861327
vt 0.519531 0.968749
vt 0.525391 0.867186
vt 0.525376 0.968749
vt 0.312500 0.968749
vt 0.306656 0.968749
vt 0.306641 0.867186
vt 0.519531 0.974608
vt 0.312500 0.974608
vt 0.529297 0.857421
vt 0.525390 0.861327
vt 0.638672 0.857421
vt 0.642578 0.857421
vt 0.525390 0.974608
vt 0.861328 0.857421
vt 0.193359 0.857421
vt 0.306640 0.968749
vt 0.306641 0.974608
vt 0.302734 0.857421
vt 0.306640 0.857421
vt 0.306641 0.861327
vt 0.312500 0.632812
vt 0.306640 0.632812
vt 0.306640 0.638671
vt 0.312500 0.638671
vt 0.312500 0.623046
vt 0.519531 0.623046
vt 0.519531 0.628905
vt 0.312500 0.628905
vt 0.312500 0.521483
vt 0.306640 0.623046
vt 0.306655 0.521483
vt 0.519531 0.521483
vt 0.525375 0.521483
vt 0.525390 0.623046
vt 0.312500 0.515624
vt 0.519531 0.515624
vt 0.632813 0.632812
vt 0.632812 0.638671
vt 0.638672 0.638671
vt 0.638672 0.632812
vt 0.306641 0.628905
vt 0.535156 0.632812
vt 0.529297 0.632812
vt 0.529297 0.638671
vt 0.535156 0.638671
vt 0.855469 0.632812
vt 0.855469 0.638671
vt 0.861328 0.638671
vt 0.861328 0.632812
vt 0.306641 0.521483
vt 0.306641 0.515624
vt 0.648438 0.632812
vt 0.642578 0.632812
vt 0.642578 0.638671
vt 0.648438 0.638671
vt 0.296875 0.632812
vt 0.296875 0.638671
vt 0.302734 0.638671
vt 0.302734 0.632812
vt 0.525390 0.515624
vt 0.199219 0.632812
vt 0.193359 0.632812
vt 0.193359 0.638671
vt 0.199219 0.638671
vt 0.519531 0.632812
vt 0.519531 0.638671
vt 0.525390 0.638671
vt 0.525390 0.632812
vt 0.525390 0.628905
vn 0.0129 0.0156 -0.9998
vn 0.0129 -0.0156 -0.9998
vn -0.0129 -0.0156 -0.9998
vn -0.0129 0.0156 -0.9998
vn -0.7071 0.0088 0.7071
vn -0.7071 -0.0088 0.7071
vn -0.0129 -0.0156 0.9998
vn -0.0129 0.0156 0.9998
vn 0.7071 -0.0088 0.7071
vn 0.7071 0.0088 0.7071
vn 0.0129 0.0156 0.9998
vn 0.0129 -0.0156 0.9998
vn -0.9995 0.0155 -0.0269
vn -0.9995 -0.0155 -0.0269
vn -0.9995 -0.0155 0.0269
vn -0.9995 0.0155 0.0269
vn 0.9995 0.0155 0.0269
vn 0.9995 -0.0155 0.0269
vn 0.9995 -0.0155 -0.0269
vn 0.9995 0.0155 -0.0269
vn 0.7071 -0.0088 -0.7071
vn 0.7071 0.0087 -0.7071
vn 0.5000 0.7071 0.5000
vn 0.0055 0.7705 0.6374
vn -0.0055 0.7705 -0.6374
vn 0.0055 0.7705 -0.6374
vn 0.0055 -0.7705 -0.6374
vn -0.0055 -0.7705 -0.6374
vn -0.6367 0.7710 0.0117
vn -0.6367 0.7710 -0.0117
vn -0.6367 -0.7710 -0.0116
vn -0.6367 -0.7710 0.0117
vn 0.6367 0.7710 -0.0116
vn 0.6367 0.7710 0.0117
vn -0.0055 0.7705 0.6374
vn -0.7071 -0.0088 -0.7071
vn -0.7071 0.0088 -0.7071
vn -0.0055 -0.7705 0.6374
vn 0.0055 -0.7705 0.6374
vn 0.6367 -0.7710 0.0116
vn 0.6367 -0.7710 -0.0117
vn 0.0130 0.9995 0.0274
vn -0.0129 0.9995 0.0274
vn 0.0130 0.9995 -0.0273
vn -0.0130 0.9995 -0.0274
vn 0.5000 0.7071 -0.5000
vn -0.5000 0.7071 -0.5000
vn -0.5000 0.7071 0.5000
vn -0.5000 -0.7071 0.5000
vn -0.0130 -0.9995 0.0274
vn 0.0130 -0.9995 0.0274
vn -0.0130 -0.9995 -0.0273
vn 0.0130 -0.9995 -0.0274
vn -0.5000 -0.7071 -0.5000
vn 0.5000 -0.7071 -0.5000
vn 0.5000 -0.7071 0.5000
usemtl Torso
s 1
f 1/1/1 51/2/2 2/3/3 32/4/4
f 38/5/5 3/6/6 4/7/7 40/8/8
f 5/9/9 6/10/10 7/11/11 8/12/12
f 40/8/8 4/7/7 8/12/12 7/11/11
f 33/13/13 9/14/14 10/15/15 39/16/16
f 11/17/17 12/18/18 52/19/19 13/20/20
f 50/21/21 26/22/22 13/20/20 52/19/19
f 7/11/11 6/10/10 25/23/23 15/24/24
f 34/25/25 28/26/26 1/1/1 32/4/4
f 18/27/27 19/28/28 2/3/3 51/2/2
f 41/29/29 35/30/30 33/13/13 39/16/16
f 17/31/31 20/32/32 10/15/15 9/14/14
f 27/33/33 21/34/34 11/17/17 13/20/20
f 15/24/24 42/35/35 40/8/8 7/11/11
f 47/36/36 31/37/37 32/4/4 2/3/3
f 12/18/18 11/17/17 6/38/10 5/39/9
f 39/16/16 10/15/15 3/40/6 38/41/5
f 51/2/2 1/1/1 26/42/22 50/43/21
f 9/14/14 33/13/13 31/44/37 47/45/36
f 8/12/12 4/7/7 16/46/38 22/47/39
f 52/19/19 12/18/18 14/48/40 23/49/41
f 24/50/42 43/51/43 42/52/35 15/53/24
f 29/54/44 24/50/42 21/55/34 27/56/33
f 43/51/43 36/57/45 35/58/30 41/59/29
f 36/57/45 29/54/44 28/60/26 34/61/25
f 36/57/45 43/51/43 24/50/42 29/54/44
f 11/17/17 21/34/34 25/62/23 6/38/10
f 21/55/34 24/50/42 15/53/24 25/63/23
f 13/20/20 26/22/22 30/64/46 27/33/33
f 1/1/1 28/26/26 30/65/46 26/42/22
f 28/60/26 29/54/44 27/56/33 30/66/46
f 32/4/4 31/37/37 37/67/47 34/25/25
f 33/13/13 35/30/30 37/68/47 31/44/37
f 35/69/30 36/57/45 34/61/25 37/70/47
f 39/16/16 38/41/5 44/71/48 41/29/29
f 40/8/8 42/35/35 44/72/48 38/5/5
f 42/52/35 43/51/43 41/59/29 44/73/48
f 4/74/7 3/75/6 46/76/49 16/77/38
f 45/78/50 55/79/51 22/80/39 16/81/38
f 48/82/52 45/78/50 20/83/32 17/84/31
f 55/79/51 53/85/53 23/86/41 14/87/40
f 53/85/53 48/82/52 19/88/28 18/89/27
f 53/85/53 55/79/51 45/78/50 48/82/52
f 10/90/15 20/91/32 46/92/49 3/93/6
f 20/83/32 45/78/50 16/81/38 46/94/49
f 9/95/14 47/96/36 49/97/54 17/98/31
f 2/99/3 19/100/28 49/101/54 47/102/36
f 19/88/28 48/82/52 17/103/31 49/104/54
f 51/105/2 50/106/21 54/107/55 18/108/27
f 52/109/19 23/110/41 54/111/55 50/112/21
f 23/86/41 53/85/53 18/89/27 54/113/55
f 12/114/18 5/115/9 56/116/56 14/117/40
f 8/118/12 22/119/39 56/120/56 5/121/9
f 22/80/39 55/79/51 14/87/40 56/122/56
